<svg width="30" height="30" viewBox="0 0 30 30" fill="none" xmlns="http://www.w3.org/2000/svg">
<path d="M10.0343 23.8508C10.0343 23.9707 9.89516 24.0666 9.71976 24.0666C9.52016 24.0846 9.38105 23.9887 9.38105 23.8508C9.38105 23.7308 9.52016 23.6349 9.69556 23.6349C9.87702 23.6169 10.0343 23.7128 10.0343 23.8508ZM8.15323 23.5809C8.11089 23.7008 8.23186 23.8388 8.41331 23.8747C8.57056 23.9347 8.75202 23.8747 8.78831 23.7548C8.8246 23.6349 8.70968 23.497 8.52823 23.443C8.37097 23.401 8.19556 23.461 8.15323 23.5809ZM10.8266 23.479C10.6512 23.5209 10.5302 23.6349 10.5484 23.7728C10.5665 23.8927 10.7238 23.9707 10.9052 23.9287C11.0806 23.8867 11.2016 23.7728 11.1835 23.6529C11.1653 23.5389 11.002 23.461 10.8266 23.479ZM14.8065 0.5C6.41734 0.5 0 6.81442 0 15.1317C0 21.7819 4.22177 27.4727 10.252 29.4756C11.0262 29.6135 11.2984 29.1398 11.2984 28.75C11.2984 28.3782 11.2802 26.3274 11.2802 25.0681C11.2802 25.0681 7.04637 25.9676 6.15726 23.2811C6.15726 23.2811 5.46774 21.5361 4.47581 21.0863C4.47581 21.0863 3.09073 20.1449 4.57258 20.1628C4.57258 20.1628 6.07863 20.2828 6.90726 21.71C8.23185 24.0247 10.4516 23.359 11.3165 22.9633C11.4556 22.0038 11.8488 21.3382 12.2843 20.9424C8.90323 20.5706 5.49194 20.0849 5.49194 14.3162C5.49194 12.6671 5.95161 11.8396 6.91935 10.7842C6.7621 10.3944 6.24798 8.7873 7.07661 6.71248C8.34073 6.3227 11.25 8.33156 11.25 8.33156C12.4597 7.99575 13.7601 7.82185 15.0484 7.82185C16.3367 7.82185 17.6371 7.99575 18.8468 8.33156C18.8468 8.33156 21.756 6.3167 23.0202 6.71248C23.8488 8.7933 23.3347 10.3944 23.1774 10.7842C24.1452 11.8456 24.7379 12.6731 24.7379 14.3162C24.7379 20.1029 21.1754 20.5646 17.7944 20.9424C18.3508 21.4161 18.8226 22.3156 18.8226 23.7248C18.8226 25.7457 18.8044 28.2463 18.8044 28.738C18.8044 29.1278 19.0827 29.6015 19.8508 29.4636C25.8992 27.4727 30 21.7819 30 15.1317C30 6.81442 23.1956 0.5 14.8065 0.5ZM5.87903 21.1823C5.8004 21.2422 5.81855 21.3802 5.92137 21.4941C6.01815 21.59 6.15726 21.632 6.23589 21.5541C6.31452 21.4941 6.29637 21.3562 6.19355 21.2422C6.09677 21.1463 5.95766 21.1043 5.87903 21.1823ZM5.22581 20.6965C5.18347 20.7745 5.24395 20.8704 5.36492 20.9304C5.46169 20.9904 5.58266 20.9724 5.625 20.8884C5.66734 20.8105 5.60685 20.7145 5.48589 20.6546C5.36492 20.6186 5.26815 20.6366 5.22581 20.6965ZM7.18548 22.8313C7.08871 22.9093 7.125 23.0892 7.26411 23.2031C7.40323 23.341 7.57863 23.359 7.65726 23.2631C7.73589 23.1851 7.6996 23.0052 7.57863 22.8913C7.44556 22.7534 7.26411 22.7354 7.18548 22.8313ZM6.49597 21.9498C6.39919 22.0098 6.39919 22.1657 6.49597 22.3036C6.59274 22.4416 6.75605 22.5015 6.83468 22.4416C6.93145 22.3636 6.93145 22.2077 6.83468 22.0698C6.75 21.9318 6.59274 21.8719 6.49597 21.9498Z" fill="#006D69"/>
</svg>
