
<svg xmlns="http://www.w3.org/2000/svg" width="30" height="30" viewBox="0 0 24 24"><g fill='#006D69'><path d="M11 12V8H7.6c-.4 1.2-.6 2.6-.6 4h4zM2 12h4c0-1.4.2-2.8.5-4H3.1c-.6 1.2-1 2.6-1.1 4zM6.5 17c-.3-1.2-.5-2.6-.5-4H2c.1 1.4.5 2.8 1.1 4h3.4zM16 12c0-1.4-.2-2.8-.5-4H12v4h4zM12 3.1V7h3.1c-.7-2.1-1.8-3.6-3.1-3.9zM16.2 7h3c-1.2-1.7-2.9-3-4.9-3.6.8.9 1.4 2.1 1.9 3.6zM11 7V3.1C9.7 3.4 8.6 4.9 7.9 7H11zM11 13H7c0 1.4.2 2.8.5 4H11v-4zM16.5 8c.3 1.2.5 2.6.5 4h4c-.1-1.4-.5-2.8-1.1-4h-3.4zM6.8 18h-3c1.2 1.7 2.9 3 4.9 3.6-.8-.9-1.4-2.1-1.9-3.6zM6.8 7c.5-1.5 1.1-2.7 1.9-3.6C6.7 4 5 5.3 3.8 7h3zM16.2 18c-.5 1.5-1.1 2.7-1.9 3.6 2-.6 3.7-1.9 4.9-3.6h-3zM12 18v3.9c1.3-.3 2.4-1.8 3.1-3.9H12zM21 13h-4c0 1.4-.2 2.8-.5 4h3.4c.6-1.2 1-2.6 1.1-4zM11 21.9V18H7.9c.7 2.1 1.8 3.6 3.1 3.9zM12 13v4h3.4c.3-1.2.5-2.6.5-4H12z"></path></g></svg>
