<svg width="177" height="177" viewBox="0 0 177 177" fill="none" xmlns="http://www.w3.org/2000/svg">
<path d="M65.7972 32.2061C64.1783 33.8249 63.2731 36.0248 63.2806 38.3217C63.2882 40.6187 64.2079 42.8245 65.8374 44.454C67.4669 46.0835 69.6727 47.0032 71.9697 47.0107C74.2666 47.0183 76.4664 46.113 78.0853 44.4942L109.346 13.2333C112.734 15.5896 115.908 18.2406 118.83 21.1551C121.366 23.7889 123.624 26.6767 125.567 29.7719L94.465 60.8739C92.9673 62.519 92.1647 64.6819 92.2239 66.9135C92.2832 69.1451 93.1997 71.2738 94.7831 72.8572C96.3666 74.4407 98.4953 75.3572 100.727 75.4165C102.958 75.4757 105.121 74.6731 106.766 73.1754L134.28 45.6616C137.597 52.6067 140.864 60.4018 144.04 68.6616L123.146 89.5551C121.527 91.1739 120.622 93.3738 120.63 95.6707C120.637 97.9677 121.557 100.174 123.186 101.803C124.816 103.433 127.022 104.352 129.319 104.36C131.616 104.367 133.815 103.462 135.434 101.843L150.568 86.7093C153.451 94.8884 156.096 103.306 158.607 111.457L151.827 118.236C150.209 119.855 149.303 122.055 149.311 124.352C149.318 126.649 150.238 128.855 151.868 130.484C153.497 132.114 155.703 133.033 158 133.041C160.297 133.048 162.497 132.143 164.115 130.524L164.248 130.392C171.706 156.387 176.514 176.501 176.514 176.501C176.514 176.501 156.387 171.706 130.405 164.235L130.538 164.102C132.156 162.483 133.062 160.284 133.054 157.987C133.047 155.69 132.127 153.484 130.497 151.854C128.868 150.225 126.662 149.305 124.365 149.298C122.068 149.29 119.868 150.195 118.249 151.814L111.457 158.607C103.306 156.096 94.9413 153.398 86.7225 150.555L101.856 135.421C103.475 133.802 104.38 131.602 104.373 129.305C104.365 127.009 103.446 124.803 101.816 123.173C100.187 121.544 97.9809 120.624 95.6839 120.616C93.387 120.609 91.1871 121.514 89.5683 123.133L68.6615 144.04C60.4151 140.878 52.6067 137.598 45.6616 134.28L73.1886 106.753C74.6863 105.108 75.4889 102.945 75.4297 100.714C75.3704 98.4821 74.4539 96.3534 72.8704 94.7699C71.287 93.1865 69.1583 92.27 66.9267 92.2107C64.6951 92.1515 62.5322 92.9541 60.8871 94.4518L29.7719 125.567C26.682 123.616 23.7951 121.359 21.1551 118.83C18.2405 115.908 15.5896 112.734 13.2333 109.346L44.5074 78.0721C46.1262 76.4532 47.0315 74.2534 47.0239 71.9565C47.0164 69.6595 46.0967 67.4537 44.4672 65.8242C42.8377 64.1947 40.6319 63.275 38.3349 63.2674C36.038 63.2599 33.8381 64.1651 32.2193 65.784L4.83786 93.1654C0.367518 80.7873 -0.501934 67.417 2.33072 54.6118C5.16338 41.8066 11.5816 30.0937 20.8376 20.8377C30.0937 11.5816 41.8065 5.16344 54.6117 2.33078C67.4169 -0.501872 80.7873 0.367575 93.1653 4.83791L65.7972 32.2061Z" fill="#AECC53"/>
</svg>
