<svg width="166" height="186" viewBox="0 0 166 186" fill="none" xmlns="http://www.w3.org/2000/svg">
<path d="M97.1339 153.994C98.8942 152.53 99.9971 150.423 100.2 148.135C100.403 145.847 99.6891 143.566 98.2157 141.794C96.7422 140.022 94.6299 138.904 92.3433 138.686C90.0567 138.469 87.7832 139.169 86.0229 140.632L52.0303 168.899C48.8726 166.242 45.9549 163.311 43.3115 160.141C41.0278 157.286 39.0441 154.204 37.3924 150.944L71.2123 122.821C72.8544 121.32 73.8517 119.24 73.9971 117.012C74.1425 114.785 73.4248 112.581 71.993 110.859C70.5613 109.137 68.5255 108.03 66.3087 107.766C64.0919 107.503 61.8645 108.104 60.0892 109.445L30.1711 134.323C27.5039 127.103 24.9648 119.042 22.5592 110.526L45.2786 91.6337C47.0389 90.1699 48.1418 88.0622 48.3446 85.7742C48.5475 83.4863 47.8337 81.2055 46.3603 79.4336C44.8869 77.6617 42.7745 76.5438 40.4879 76.3259C38.2014 76.108 35.9279 76.808 34.1675 78.2718L17.7111 91.9559C15.5895 83.5472 13.727 74.9229 11.9733 66.5759L19.3448 60.4462C21.1051 58.9824 22.208 56.8747 22.4109 54.5867C22.6138 52.2988 21.9 50.018 20.4266 48.2461C18.9532 46.4742 16.8408 45.3563 14.5542 45.1384C12.2677 44.9205 9.99412 45.6204 8.2338 47.0842L8.08982 47.2039C3.04412 20.6355 0.0982338 0.165306 0.0982338 0.165306C0.0982338 0.165306 19.7021 6.78376 44.8899 16.6031L44.746 16.7228C42.9857 18.1866 41.8828 20.2943 41.6799 22.5823C41.477 24.8703 42.1908 27.1511 43.6642 28.923C45.1376 30.6949 47.25 31.8128 49.5366 32.0306C51.8231 32.2485 54.0967 31.5486 55.857 30.0848L63.2429 23.9431C71.13 27.1899 79.2123 30.6422 87.1361 34.2262L70.6797 47.9104C68.9194 49.3742 67.8165 51.4819 67.6136 53.7698C67.4107 56.0578 68.1245 58.3386 69.5979 60.1105C71.0713 61.8824 73.1837 63.0003 75.4703 63.2182C77.7569 63.436 80.0304 62.7361 81.7907 61.2723L104.524 42.3683C112.447 46.2724 119.922 50.2539 126.534 54.1933L96.6013 79.0834C94.9592 80.5844 93.9619 82.6647 93.8165 84.8924C93.6711 87.12 94.3888 89.3237 95.8206 91.0455C97.2524 92.7674 99.2881 93.875 101.505 94.1384C103.722 94.4018 105.949 93.8006 107.724 92.4599L141.559 64.3253C144.457 66.5513 147.125 69.0632 149.522 71.8228C152.157 75.0001 154.506 78.4034 156.542 81.9927L122.535 110.271C120.775 111.735 119.672 113.842 119.469 116.13C119.266 118.418 119.98 120.699 121.453 122.471C122.927 124.243 125.039 125.361 127.326 125.579C129.612 125.797 131.886 125.097 133.646 123.633L163.42 98.8745C166.738 111.61 166.379 125.004 162.386 137.496C158.392 149.988 150.928 161.063 140.863 169.433C130.798 177.802 118.547 183.121 105.536 184.768C92.5253 186.416 79.2907 184.326 67.3742 178.741L97.1339 153.994Z" fill="#AECC53"/>
</svg>
