<svg width="30" height="36" viewBox="0 0 30 36" fill="none" xmlns="http://www.w3.org/2000/svg">
<g clip-path="url(#clip0_1008_10643)">
<path d="M6.71518 30.8572H0.495536V10.8282H6.71518V30.8572ZM3.60201 8.09608C1.61317 8.09608 0 6.44876 0 4.45992C1.42353e-08 3.50461 0.379496 2.58842 1.055 1.91291C1.73051 1.23741 2.6467 0.85791 3.60201 0.85791C4.55732 0.85791 5.47351 1.23741 6.14901 1.91291C6.82452 2.58842 7.20402 3.50461 7.20402 4.45992C7.20402 6.44876 5.59018 8.09608 3.60201 8.09608ZM29.9933 30.8572H23.7871V21.1072C23.7871 18.7836 23.7402 15.8037 20.5533 15.8037C17.3196 15.8037 16.8241 18.3282 16.8241 20.9398V30.8572H10.6112V10.8282H16.5763V13.5604H16.6634C17.4937 11.9867 19.5221 10.326 22.5482 10.326C28.8429 10.326 30 14.4711 30 19.855V30.8572H29.9933Z" fill="#006D69"/>
</g>
<defs>
<clipPath id="clip0_1008_10643">
<rect width="30" height="34.2857" fill="white" transform="translate(0 0.857178)"/>
</clipPath>
</defs>
</svg>
