<svg width="162" height="64" viewBox="0 0 162 64" fill="none" xmlns="http://www.w3.org/2000/svg">
<path d="M78.2136 39.0887C77.2498 38.7951 76.4118 38.3756 75.7414 37.7884L76.6213 35.859C77.3336 36.4042 78.046 36.7817 78.8421 37.0334C79.6382 37.2851 80.4762 37.4109 81.3562 37.4109C82.3618 37.4109 83.116 37.2431 83.6607 36.8656C84.2055 36.5301 84.4569 36.0267 84.4569 35.3976C84.4569 34.8523 84.2055 34.4328 83.7026 34.1392C83.1998 33.8456 82.3618 33.5939 81.1886 33.3003C79.9734 33.0487 79.0097 32.7551 78.2136 32.3776C77.4594 32.042 76.8727 31.5806 76.4956 31.0353C76.1185 30.49 75.909 29.8189 75.909 28.98C75.909 28.1411 76.1604 27.3442 76.6213 26.6731C77.0822 26.002 77.7527 25.4567 78.5907 25.0792C79.4287 24.7017 80.4343 24.4919 81.5657 24.4919C82.5713 24.4919 83.5769 24.6597 84.4988 24.9533C85.4206 25.2469 86.1748 25.7083 86.7614 26.2117L85.8815 28.1411C84.5826 27.0925 83.1579 26.5892 81.5657 26.5892C80.6439 26.5892 79.8896 26.7989 79.3449 27.1764C78.8002 27.5539 78.5488 28.0992 78.5488 28.7703C78.5488 29.3156 78.8002 29.777 79.2611 30.0706C79.7639 30.3642 80.56 30.6578 81.7333 30.9095C82.9484 31.2031 83.9541 31.4967 84.7083 31.8323C85.4625 32.1678 86.0491 32.5873 86.4681 33.1326C86.8872 33.6359 87.0967 34.307 87.0967 35.104C87.0967 35.9848 86.8453 36.7398 86.3843 37.369C85.9234 38.0401 85.253 38.5434 84.3731 38.879C83.4931 39.2145 82.4875 39.4243 81.2724 39.4243C80.2667 39.5501 79.2192 39.3823 78.2136 39.0887Z" fill="#006D69"/>
<path d="M97.5301 29.6511C98.2005 30.1125 98.7452 30.6997 99.1224 31.5386C99.4995 32.3775 99.709 33.2583 99.709 34.307C99.709 35.3556 99.4995 36.2784 99.1224 37.0753C98.7452 37.8723 98.2005 38.4595 97.5301 38.8789C96.8597 39.2984 96.0636 39.5081 95.1836 39.5081C94.4713 39.5081 93.8428 39.3403 93.2562 39.0467C92.7114 38.7531 92.2505 38.3337 91.9572 37.7884V43.0734H89.4012V29.2317H91.9572V30.7417C92.2505 30.1964 92.7114 29.735 93.2562 29.4414C93.8428 29.1478 94.4713 28.98 95.2255 28.98C96.0636 28.98 96.8178 29.1897 97.5301 29.6511ZM96.3988 36.6559C96.8597 36.1106 97.0692 35.3136 97.0692 34.307C97.0692 33.2583 96.8597 32.4614 96.3988 31.8742C95.9379 31.2869 95.3093 30.9933 94.5132 30.9933C93.6752 30.9933 93.0467 31.2869 92.5857 31.8322C92.1248 32.3775 91.9153 33.2164 91.9153 34.265C91.9153 35.3136 92.1248 36.1106 92.5857 36.6559C93.0467 37.2011 93.6752 37.4948 94.5132 37.4948C95.3093 37.4948 95.9379 37.2431 96.3988 36.6559Z" fill="#006D69"/>
<path d="M110.645 34.7685H103.773C103.857 35.6913 104.15 36.4043 104.611 36.8657C105.114 37.3271 105.785 37.5368 106.665 37.5368C107.796 37.5368 108.802 37.1593 109.723 36.4463L110.478 38.208C110.017 38.5855 109.43 38.921 108.718 39.1307C108.005 39.3824 107.293 39.4663 106.581 39.4663C104.947 39.4663 103.606 39.0049 102.684 38.0402C101.72 37.1174 101.259 35.8171 101.259 34.1813C101.259 33.1327 101.469 32.2099 101.888 31.4129C102.307 30.616 102.893 29.9868 103.648 29.5674C104.402 29.106 105.24 28.8962 106.204 28.8962C107.586 28.8962 108.676 29.3576 109.514 30.2385C110.31 31.1193 110.729 32.3777 110.729 33.9296V34.7685H110.645ZM104.569 31.4549C104.15 31.9163 103.899 32.5454 103.815 33.3424H108.466C108.424 32.5035 108.215 31.8743 107.838 31.4129C107.461 30.9935 106.916 30.7418 106.246 30.7418C105.533 30.7838 104.989 31.0354 104.569 31.4549Z" fill="#006D69"/>
<path d="M120.282 30.0286C120.953 30.6997 121.33 31.7903 121.33 33.2164V39.3403H118.858V37.7884C118.606 38.3337 118.271 38.7531 117.768 39.0467C117.266 39.3403 116.679 39.5081 116.009 39.5081C115.338 39.5081 114.71 39.3823 114.165 39.0887C113.62 38.795 113.159 38.4175 112.866 37.9561C112.531 37.4528 112.405 36.9495 112.405 36.3623C112.405 35.6072 112.615 35.02 112.992 34.6006C113.369 34.1811 113.997 33.8456 114.835 33.6778C115.673 33.4681 116.847 33.3842 118.355 33.3842H118.858V32.8808C118.858 32.2097 118.69 31.7064 118.397 31.3708C118.104 31.0772 117.601 30.9094 116.93 30.9094C116.386 30.9094 115.841 30.9933 115.254 31.2031C114.668 31.3708 114.081 31.6644 113.536 31.9581L112.824 30.1964C113.369 29.8189 114.081 29.5253 114.877 29.3155C115.673 29.0639 116.428 28.98 117.14 28.98C118.523 28.98 119.57 29.3155 120.282 30.0286ZM118.187 36.9495C118.606 36.4881 118.858 35.9009 118.858 35.1459V34.7264H118.481C117.559 34.7264 116.847 34.7684 116.344 34.8522C115.841 34.9361 115.464 35.062 115.254 35.2717C115.045 35.4814 114.919 35.775 114.919 36.1106C114.919 36.572 115.087 36.9075 115.38 37.2011C115.673 37.4948 116.05 37.6206 116.553 37.6206C117.182 37.6625 117.768 37.4109 118.187 36.9495Z" fill="#006D69"/>
<path d="M130.842 39.3405L126.484 34.7265V39.3405H123.886V24.7856H126.484V33.6779L130.548 29.2737H133.691L129.166 34.0974L134.026 39.3405H130.842Z" fill="#006D69"/>
<path d="M143.705 34.7685H136.834C136.917 35.6913 137.211 36.4043 137.672 36.8657C138.132 37.3271 138.845 37.5368 139.725 37.5368C140.856 37.5368 141.862 37.1593 142.784 36.4463L143.538 38.208C143.077 38.5855 142.49 38.921 141.778 39.1307C141.066 39.3824 140.353 39.4663 139.641 39.4663C138.007 39.4663 136.666 39.0049 135.744 38.0402C134.78 37.1174 134.319 35.8171 134.319 34.1813C134.319 33.1327 134.529 32.2099 134.948 31.4129C135.367 30.616 135.954 29.9868 136.708 29.5674C137.462 29.106 138.3 28.8962 139.264 28.8962C140.647 28.8962 141.736 29.3576 142.574 30.2385C143.412 31.1193 143.789 32.3777 143.789 33.9296V34.7685H143.705ZM137.63 31.4549C137.211 31.9163 136.959 32.5454 136.875 33.3424H141.526C141.485 32.5035 141.275 31.8743 140.898 31.4129C140.521 30.9935 139.976 30.7418 139.306 30.7418C138.593 30.7838 138.049 31.0354 137.63 31.4549Z" fill="#006D69"/>
<path d="M152.463 31.1192L150.954 31.245C149.236 31.4128 148.398 32.2936 148.398 33.8456V39.2984H145.8V29.2317H148.273V30.9933C148.775 29.7769 149.865 29.1058 151.499 29.0219L152.295 28.98L152.463 31.1192Z" fill="#006D69"/>
<path d="M154.893 39.1725C154.139 38.9628 153.51 38.6273 152.966 38.2078L153.678 36.4042C154.767 37.2011 155.982 37.5786 157.365 37.5786C157.952 37.5786 158.413 37.4948 158.706 37.285C158.999 37.0753 159.167 36.8236 159.167 36.4461C159.167 36.1525 159.041 35.9009 158.832 35.7331C158.622 35.5653 158.245 35.3975 157.7 35.2717L156.066 34.8942C155.144 34.6845 154.432 34.3489 153.971 33.8875C153.51 33.4261 153.301 32.7969 153.301 32.0839C153.301 31.4547 153.468 30.9094 153.845 30.448C154.181 29.9867 154.684 29.6092 155.312 29.3575C155.941 29.1058 156.653 28.98 157.491 28.98C158.203 28.98 158.916 29.1058 159.586 29.3155C160.256 29.5253 160.843 29.8608 161.346 30.2383L160.634 32C159.586 31.245 158.538 30.8675 157.491 30.8675C156.946 30.8675 156.485 30.9514 156.15 31.1611C155.815 31.3708 155.689 31.6644 155.689 32.0419C155.689 32.3356 155.773 32.5453 155.982 32.7131C156.192 32.8808 156.485 33.0486 156.946 33.1325L158.664 33.51C159.67 33.7197 160.424 34.0972 160.885 34.5586C161.346 35.02 161.597 35.6492 161.597 36.4461C161.597 37.3689 161.22 38.1239 160.466 38.6692C159.712 39.2145 158.664 39.5081 157.407 39.5081C156.443 39.5081 155.647 39.3823 154.893 39.1725Z" fill="#006D69"/>
<path d="M63.59 32C63.59 14.5091 49.4274 0.331787 31.9545 0.331787C14.4816 0.331787 0.319 14.5091 0.319 32C0.319 49.491 14.4816 63.6683 31.9545 63.6683C33.002 63.6683 63.5062 63.5005 63.5062 63.5005C63.5062 63.5005 63.59 32.797 63.59 32Z" fill="#006D69"/>
<path d="M25.7531 47.6034L53.1985 39.2145V28.5186L25.7531 20.1296V47.6034Z" fill="white"/>
<path d="M53.1566 47.6034H47.8351V26.3794H53.1566V44.2478V47.6034Z" fill="#AECC53"/>
<path d="M25.7531 25.5825V42.1507L21.8563 39.5082V28.225L25.7531 25.5825Z" fill="#AECC53"/>
<path d="M18.4204 41.3537C14.3141 37.2431 14.3141 30.532 18.4204 26.4214" stroke="white" stroke-width="3.5222" stroke-miterlimit="10"/>
<path d="M15.5292 44.2478C9.7887 38.5014 9.7887 29.2316 15.5292 23.5271" stroke="white" stroke-width="3.5222" stroke-miterlimit="10"/>
</svg>
