<svg width="353" height="836" viewBox="0 0 353 836" fill="none" xmlns="http://www.w3.org/2000/svg">
<g opacity="0.5" clip-path="url(#clip0_1028_11541)">
<path d="M447.355 59.6494C422.79 53.0686 390.009 59.749 366.942 68.6374C334.018 81.37 303.166 109.223 293.847 143.406C282.366 185.915 258.494 198.904 226.14 225.577C200.816 246.512 179.732 272.355 166.025 302.244C114.799 414.38 148.83 530.493 226.335 619.718C252.104 649.378 280.146 676.923 306.594 706.066C326.466 728.005 363.355 757.449 361.377 789.159" stroke="#ADCB53" stroke-miterlimit="10"/>
<path d="M517.703 440.833C496.584 421.064 471.736 404.974 453.78 396.523C412.668 377.181 345.247 370.948 308.216 402.242C260.903 442.191 272.515 503.583 308.115 548.045C334.955 581.449 376.087 592.301 418.85 591.539C456.566 590.913 496.737 583.563 528.601 562.369C544.22 551.988 558.992 536.941 560.152 518.182C561.851 491.612 542.237 463.812 517.703 440.833Z" stroke="#ADCB53" stroke-miterlimit="10"/>
<path d="M408.129 639.605C459.009 643.591 519.715 635.327 563.741 608.313C581.673 597.259 604.557 576.446 605.855 553.521C611.924 441.823 490.582 316.543 380.965 313.554C320.464 311.907 258.325 338.05 231.786 395.308C211.75 438.463 210.156 490.611 230.431 533.709C261.155 599.082 335.978 633.943 408.129 639.605Z" stroke="#ADCB53" stroke-miterlimit="10"/>
</g>
<defs>
<clipPath id="clip0_1028_11541">
<rect width="514.1" height="664.1" fill="white" transform="translate(353.388) rotate(32.1495)"/>
</clipPath>
</defs>
</svg>
