<svg width="372" height="698" viewBox="0 0 372 698" fill="none" xmlns="http://www.w3.org/2000/svg">
<g opacity="0.5" clip-path="url(#clip0_1028_11536)">
<path d="M-98.9503 500.776C-68.7747 498.612 -39.3795 483.626 -19.1396 460.544C1.10024 437.462 11.6046 406.199 9.74359 376.166C8.98878 364.964 6.61486 353.847 8.87059 342.719C10.8103 333.578 15.6577 325.327 19.3413 316.673C32.97 285.363 31.2274 248.138 14.4566 219.466C-6.59404 183.602 -58.985 156.801 -101.736 168.896" stroke="#ADCB53" stroke-miterlimit="10"/>
<path d="M-45.2578 589.055C4.35053 586.103 50.5863 545.316 60.2303 496.136C64.933 471.32 61.4046 445.662 66.5699 420.822C72.389 393.398 88.6749 369.133 98.6794 342.88C115.798 297.943 113.371 246.615 92.2252 204.73C71.0798 162.844 31.5798 131.426 -13.8559 120.02C-20.7658 122.237 -19.694 124.151 -26.6549 123.126C-42.6692 120.49 -59.7453 123.936 -73.9621 132.563" stroke="#ADCB53" stroke-miterlimit="10"/>
<path d="M12.1642 664.744C44.2292 672.332 78.3507 648.753 94.083 618.723C109.815 588.693 111.703 554.174 113.264 520.947C114.561 492.95 111.628 461.002 118.956 433.847C125.957 407.983 143.168 383.67 154.127 359.221C185.218 290.14 191.103 208.013 157.434 142.564C123.765 77.115 46.7011 34.3412 -26.2924 51.7326" stroke="#ADCB53" stroke-miterlimit="10"/>
</g>
<defs>
<clipPath id="clip0_1028_11536">
<rect width="506.782" height="479.979" fill="white" transform="translate(371.695 327.633) rotate(133.047)"/>
</clipPath>
</defs>
</svg>
