<svg xmlns="http://www.w3.org/2000/svg" viewBox="0 0 310 298"><defs><style>.cls-1{isolation:isolate;}.cls-13,.cls-2,.cls-5{fill:#aecc53;}.cls-2{opacity:0.2;}.cls-17,.cls-18,.cls-21,.cls-3,.cls-30,.cls-6{fill:none;}.cls-17,.cls-3{stroke:#aecc53;}.cls-10,.cls-11,.cls-14,.cls-15,.cls-16,.cls-17,.cls-18,.cls-19,.cls-21,.cls-22,.cls-23,.cls-25,.cls-27,.cls-28,.cls-29,.cls-3,.cls-30,.cls-4,.cls-9{stroke-linecap:round;stroke-linejoin:round;}.cls-3{stroke-width:1.24px;}.cls-12,.cls-20,.cls-25,.cls-4{fill:#006d68;}.cls-25,.cls-4{stroke:#006d68;}.cls-4{stroke-width:0.84px;}.cls-20,.cls-24,.cls-5{mix-blend-mode:multiply;}.cls-6{stroke:#fff;stroke-miterlimit:10;stroke-width:0.98px;}.cls-10,.cls-11,.cls-15,.cls-16,.cls-23,.cls-27,.cls-28,.cls-7,.cls-9{fill:#fff;}.cls-14,.cls-22,.cls-29,.cls-8{fill:#3c3c3b;}.cls-10,.cls-11,.cls-14,.cls-15,.cls-16,.cls-18,.cls-21,.cls-22,.cls-23,.cls-27,.cls-28,.cls-29,.cls-30,.cls-9{stroke:#3c3c3b;}.cls-29,.cls-9{stroke-width:0.73px;}.cls-10{stroke-width:1.18px;}.cls-11{stroke-width:1.18px;}.cls-14,.cls-15{stroke-width:0.81px;}.cls-16{stroke-width:0.78px;}.cls-17{stroke-width:0.91px;}.cls-18,.cls-19,.cls-28{stroke-width:0.93px;}.cls-19{fill:#c6c6c6;stroke:#c6c6c6;}.cls-21{stroke-width:0.91px;}.cls-22{stroke-width:0.91px;}.cls-23{stroke-width:0.75px;}.cls-25{stroke-width:0.27px;}.cls-26{fill:#ccc;}.cls-27{stroke-width:0.71px;}.cls-30{stroke-width:1.19px;}</style></defs><g class="cls-1"><g id="Layer_1" data-name="Layer 1"><path class="cls-2" d="M273.36,49.21c-8.49-11.25-17.9-22.13-29.83-29.63C227.45,9.48,208.1,6.27,189.28,3.68c-34.63-4.79-68,1-102.4,6.52C59,14.68,35.33,45.57,21.75,68.16c-1.64,2.72-3.28,5.46-4.87,8.23-4.89,8.54-9.25,17.37-11.25,27-3.2,15.36,1,32.69,2.66,48.07,1.82,16.66,4.64,31.38,11.53,46.82,7.81,17.48,17.34,45,33.07,57,19.8,15,35.28,26.06,59.37,32.56,25.66,6.91,55.32,12.07,81.57,4.77,13.76-3.82,27.15-13.25,39.78-19.85C258.23,259.85,277,241,288.8,215.77c12.35-26.45,14.63-51.27,18.37-79.55C312,99.92,294.4,77.08,273.36,49.21Z"/><path class="cls-3" d="M23.55,242.92l11.3-23.72a14.69,14.69,0,0,1,26.53,0l21.95,45.91"/><path class="cls-3" d="M60.84,267,2,266.67,12.32,244.8a6.84,6.84,0,0,1,12.35,0L35.24,267"/><path class="cls-3" d="M7.83,255.21c2.5-1.11,3.84.57,4.76,2.69a34.09,34.09,0,0,1,2.46,8.91"/><path class="cls-3" d="M10.2,249.12a11.29,11.29,0,0,1,6.39,2.17c1.78,1.45,2.78,3.57,3.75,5.65,1.74,3.74,3.11,6.45,3.55,9.73"/><path class="cls-3" d="M27.88,251.07q4.22-9.48,8.89-18.75c2.45-4.85,4.78-10.33,9.38-13.57a11.3,11.3,0,0,1,7.68-2c2.21.25,5.77,1.4,7.36,3"/><path class="cls-3" d="M32.51,260.46,43,237.73a32.1,32.1,0,0,1,5-8.44,11,11,0,0,1,12.19-2.86,25.17,25.17,0,0,1,3.68,1.82l2.69,1.53"/><polygon class="cls-4" points="119.18 127.47 48.24 93.87 120.58 107.4 119.18 127.47"/><path class="cls-5" d="M218.11,266.33H119.84V65.9A43.81,43.81,0,0,1,163.55,22H174.4a43.81,43.81,0,0,1,43.71,43.9Z"/><line class="cls-6" x1="141.21" y1="258" x2="218.21" y2="258"/><line class="cls-6" x1="141.21" y1="250.31" x2="218.21" y2="250.31"/><line class="cls-6" x1="141.21" y1="243.1" x2="218.21" y2="243.1"/><line class="cls-6" x1="141.21" y1="235.9" x2="218.21" y2="235.9"/><line class="cls-6" x1="141.21" y1="228.21" x2="218.21" y2="228.21"/><line class="cls-6" x1="141.21" y1="221" x2="218.21" y2="221"/><path class="cls-7" d="M169.19,45.33A34.77,34.77,0,1,0,204,80.1a34.77,34.77,0,0,0-34.77-34.77Z"/><rect class="cls-8" x="142.51" y="81.73" width="11.2" height="23.33" rx="5.6"/><path class="cls-5" d="M161.64,77.53h0a14,14,0,0,1,14,14v17.73a0,0,0,0,1,0,0H159.43a11.79,11.79,0,0,1-11.79-11.79V91.53a14,14,0,0,1,14-14Z"/><ellipse class="cls-9" cx="150.98" cy="72.4" rx="2.33" ry="3.27" transform="translate(-15.67 56.09) rotate(-20.03)"/><ellipse class="cls-9" cx="172.45" cy="72.4" rx="3.27" ry="2.33" transform="translate(45.36 209.62) rotate(-69.97)"/><polyline class="cls-10" points="119.18 267 48.14 267 48.14 127.47 48.3 93.48 119.18 127.47 119.18 234.5"/><polygon class="cls-11" points="218.94 104.68 254.37 62.6 291.19 104.68 291.19 267 218.94 267 218.94 104.68"/><polygon class="cls-12" points="91.45 204.65 55.96 204.65 55.96 134.78 91.45 143.66 91.45 204.65"/><path class="cls-13" d="M86.63,204.65s-.32-12.56-.35-14.36a178.38,178.38,0,0,0-1.34-22c-.79-5.63-1.29-11.36-5.63-15.52-5.17-4.95-12.51-5.59-17.83-.47-3.16,3-4.59,7.1-5.77,11.33v41.06Z"/><circle class="cls-14" cx="79.05" cy="139.43" r="11.47"/><path class="cls-15" d="M68.74,123.44a6.55,6.55,0,0,1,4.88.63c.72.39,2.43,1.65,2.22,2.63-.34,1.62-2.47.43-2.32-.91.17-1.57,2.51-3.13,4-3.25a5.67,5.67,0,0,1,4.41,1.74c.58.51,2.31,2.08,1.19,2.86a1,1,0,0,1-1.42-1c.19-.73,1.68-1.18,2.31-1.29a2.57,2.57,0,0,1,1.66.33,4,4,0,0,1,2,3,1.85,1.85,0,0,1-.1.74c-.74,2-2.6,1.17-4,1a8.12,8.12,0,0,0-3,.08c-3.26.81-4.29,3.42-5,6.35-.12.52-.41,1.16-.94,1.1s-.62-.49-.91-.78c-1.11-1.16-2.92-.19-3.56.9a5.79,5.79,0,0,0-.06,4.8c.09.2,1.78,2.31,1.75,1.68.15,3-2.08,5.93-5.27,4.26A5.19,5.19,0,0,1,64,145.16c-.29-1.34,1.1-5.27,3.08-3.73a1.32,1.32,0,0,1-.28,2.08,1.87,1.87,0,0,1-1.1.06c-3-.52-5.24-3-4.73-6.12a3.41,3.41,0,0,1,3-2.8c1.85,0,1,2.63-.89,1.13a5.56,5.56,0,0,1-1.44-5.66c.87-2,2.63-2.53,4.59-2.27a3.14,3.14,0,0,1,2,.9c.53.61.54,1.61-.45,1.51s-1.34-1.51-1.51-2.24A3.71,3.71,0,0,1,68.74,123.44Z"/><path class="cls-14" d="M108.7,154.52c.3-.31.57-.64.89-1a31.07,31.07,0,0,1,3.24-2.55,11.3,11.3,0,0,0,3.65-4.38.42.42,0,0,0,0-.27c-.07-.24-.42-.17-.64-.05-1.14.63-2.22,1.54-3.52,1.58-.27,0-.6-.06-.7-.31a.75.75,0,0,1,.2-.67c.83-1.1,1.48-2.29,2.25-3.43.34-.5,1.11-1.33.92-2a.55.55,0,0,0-.75-.28c-.7.29-1.34,1.3-1.84,1.84s-2.44,3.23-3.32,2.43c-.64-.58,1-3.06,1.23-3.61.14-.28,1.31-2.67,0-2.27-.66.2-1.76,1.72-2.23,2.31-1,1.2-1.69,2.59-2.67,3.8a1,1,0,0,1-.52.42c-1,.25-1.21-5.28-2.76-3.58a1.53,1.53,0,0,0-.26,1c0,1.08,0,2.16-.08,3.24,0,1.28,0,2.57,0,3.85a3.69,3.69,0,0,1-.05.94c-.15.65-.67,1.2-.71,1.88s1.09,1.24,1.62,1.6a5.46,5.46,0,0,0,2.52,1.09,4.05,4.05,0,0,0,2.31-.61A5.32,5.32,0,0,0,108.7,154.52Z"/><path class="cls-16" d="M107.72,160.28a.3.3,0,0,0,0,.08l-4.78,9.37a18.79,18.79,0,0,1-29.57,5.21l-7.82-7.29a6.72,6.72,0,1,1,9.17-9.82l7.81,7.29a5.36,5.36,0,0,0,8.44-1.49l4.78-9.38a6.72,6.72,0,0,1,12,6Z"/><path class="cls-12" d="M169.19,54.67A25.43,25.43,0,1,1,143.76,80.1a25.46,25.46,0,0,1,25.43-25.43m0-9.34A34.77,34.77,0,1,0,204,80.1a34.77,34.77,0,0,0-34.77-34.77Z"/><path class="cls-17" d="M169.19,50.1a30,30,0,1,0,30,30,30,30,0,0,0-30-30Z"/><circle class="cls-7" cx="169.19" cy="176.23" r="34.77"/><circle class="cls-18" cx="169.19" cy="176.23" r="29.4"/><polygon class="cls-19" points="78.46 251.97 98.52 251.97 98.52 236.24 118.88 236.24 119.18 236.24 119.18 220.2 68.43 220.2 68.43 235.55 68.13 235.55 47.77 235.55 47.77 251.28 27.71 251.28 27.71 267 48.07 267 48.37 267 78.46 267 78.46 251.97"/><polygon class="cls-20" points="140.99 220.22 119.18 219.87 118.83 235.55 118.53 235.55 98.17 235.55 98.17 251.28 78.11 251.28 78.11 267 98.47 267 98.77 267 141.58 267 140.99 220.22"/><polyline class="cls-21" points="28.18 267 78.46 267 78.46 251.97 98.52 251.97 98.52 236.24 118.88 236.24 119.18 236.24 119.18 220.2"/><rect class="cls-19" x="237.8" y="114.4" width="36.4" height="84.93"/><polygon class="cls-22" points="254.04 62.6 218.58 76.6 218.58 105.53 254.04 62.6"/><path class="cls-7" d="M243.1,199.33s0-10.69-.07-12.43a174.28,174.28,0,0,1,.49-21.44c.56-5.49.83-11.06,4.89-15.26,4.83-5,11.93-5.88,17.28-1.11,3.18,2.84,5.11,6.82,6.42,10.87,1.92,6,2.37,39.37,2.37,39.37Z"/><path class="cls-16" d="M243.38,166.87c0-.47.09-.94.14-1.41.56-5.49.83-11.06,4.89-15.26,4.83-5,11.93-5.88,17.28-1.11,3.18,2.84,5.11,6.82,6.42,10.87,1.92,6,2.37,39.37,2.37,39.37H243.1s0-10.69-.07-12.43c-.05-2-.08-3.36-.1-5.4"/><circle class="cls-23" cx="248.18" cy="137.29" r="11.14"/><path class="cls-4" d="M240.83,129c2.22-5.41,6.83-8.87,12.2-10.89,2.42-.91,2.59-1.52,4.54-3.51,3-3,5.53-.81,8.79-1.95a5.85,5.85,0,0,0,.8-.35c2.21-1.21,3-3.57,6.29-3.21a6.16,6.16,0,0,1,5.48,5.42,3.42,3.42,0,0,1-.66,2.39c-1.78,2.16-2.83,1.23-2.44,3.92.28,2,1.88,2.94,1.4,5.35a7,7,0,0,1-4,5,8.67,8.67,0,0,0-2.91,1.42c-.9.9-1.05,2.29-1.4,3.51-1.62,5.57-7.63,10.84-13.75,9.85,1.07-.78.16-3.2.18-4.4,0,.56,1.05-.53,1.05-.52a3.85,3.85,0,0,0,.62-2c.29-1.68.17-3.47-1.25-4.64a2.54,2.54,0,0,0-1.6-.64,1.47,1.47,0,0,0-1.37.94c.27-.86-1.89-3.36-2.39-4a5.9,5.9,0,0,0-4-2.38A10.22,10.22,0,0,0,240.83,129Z"/><g class="cls-24"><path class="cls-13" d="M223.05,169.68l.06,0,8.1,6.72a18.8,18.8,0,0,0,29.22-6.91l4.29-9.79a6.72,6.72,0,0,0-12.3-5.4l-4.3,9.79a5.36,5.36,0,0,1-8.33,2l-8.1-6.72c-2.85-2.37-4.31-1.07-6.68,1.78S220.25,167.3,223.05,169.68Z"/></g><ellipse class="cls-8" cx="225.32" cy="163.07" rx="5.6" ry="2.33" transform="translate(-45.1 228.13) rotate(-49.42)"/><path class="cls-23" d="M220.53,164.46c-.39-.18-.77-.39-1.19-.58a31,31,0,0,0-4-1.17,11.28,11.28,0,0,1-5-2.72.4.4,0,0,1-.14-.24c0-.24.34-.32.58-.28,1.29.16,2.64.61,3.86.16.26-.09.53-.27.53-.54s-.23-.43-.43-.55c-1.18-.72-2.23-1.58-3.37-2.35-.49-.34-1.52-.83-1.59-1.52a.55.55,0,0,1,.6-.53,7.38,7.38,0,0,1,2.39,1c.61.29,3.46,2.1,4,1,.39-.78-2-2.48-2.48-2.9-.23-.21-2.2-2-.83-2.12.69-.06,2.28.94,2.93,1.32,1.34.76,2.53,1.79,3.88,2.55a1.1,1.1,0,0,0,.65.19c1-.15-.84-5.35,1.23-4.35a1.45,1.45,0,0,1,.61.83c.43,1,.84,2,1.28,3,.51,1.18,1,2.37,1.44,3.58a4,4,0,0,0,.39.84c.39.56,1.48.83,1.36,1.49a7.27,7.27,0,0,1-4.16,5A15.59,15.59,0,0,1,220.53,164.46Z"/><path class="cls-25" d="M172.35,180.42H166c-6.62,0-12.31-3.75-14.57-9a10.55,10.55,0,0,1-.33-7.3l9.92-32c2.29-7.41,14-7.41,16.26,0l9.95,32a10.46,10.46,0,0,1-.33,7.31C184.66,176.67,179,180.42,172.35,180.42Z"/><path class="cls-17" d="M176.41,147.09a7.31,7.31,0,0,1-7.22,6.31h0a7.31,7.31,0,0,1-7.22-6.31"/><path class="cls-13" d="M175.37,147.05a1,1,0,0,1,1.1-.94,1,1,0,0,1-.16,2A1,1,0,0,1,175.37,147.05Z"/><path class="cls-13" d="M163,147.05a1,1,0,1,0-.95,1.11A1,1,0,0,0,163,147.05Z"/><path class="cls-17" d="M180,157a10.88,10.88,0,0,1-10.79,9.86h0A10.88,10.88,0,0,1,158.4,157"/><path class="cls-13" d="M178.94,157a1,1,0,1,1,1,1.07A1,1,0,0,1,178.94,157Z"/><path class="cls-13" d="M159.43,157a1,1,0,1,0-1,1.07A1,1,0,0,0,159.43,157Z"/><line class="cls-17" x1="169.19" y1="138.99" x2="169.19" y2="201.92"/><path class="cls-13" d="M168.17,139.05a1,1,0,1,1,1,1A1,1,0,0,1,168.17,139.05Z"/><path class="cls-26" d="M159.32,191.87h19.73a0,0,0,0,1,0,0v2.6a9.87,9.87,0,0,1-9.87,9.87h0a9.87,9.87,0,0,1-9.87-9.87v-2.6a0,0,0,0,1,0,0Z"/><path class="cls-27" d="M207.6,65.66c-.21.5-.43,1-.62,1.52a17.25,17.25,0,0,1-1.57,3.27c-1.19,1.86-3,3.35-5.35,3-2-.34-2.8-2.2-3.07-4a30.27,30.27,0,0,1-.2-3.15,7,7,0,0,1-.16-2.27c.19-.56.78-.53,1.16-.14a7.74,7.74,0,0,1,.89,2.17c.12.31.37.68.68.58s.3-.35.34-.58l.78-4.43a7.07,7.07,0,0,1,.36-1.83c.29-.63,1-1,1.09,0a23.2,23.2,0,0,1-.11,2.48,6.51,6.51,0,0,0,.17,2.42.39.39,0,0,0,.5.22.73.73,0,0,0,.22-.27c.73-1.43,1.12-3,1.79-4.44s1.71-1,1.42.51c-.19,1-.58,2-.84,3-.08.33-.75,2.17.23,1.85.72-.23,1.23-1.21,1.59-1.81.21-.34.72-1.93,1.33-1.41.39.33.3.95.14,1.44C208.15,64.35,207.88,65,207.6,65.66Z"/><path class="cls-8" d="M199.38,71.3a5.9,5.9,0,0,0-6.64,5l-1.26,5.41a4.71,4.71,0,0,1-6.56,3.67l-8.58-3.79a5.9,5.9,0,0,0-4.92.07c4.69,4.69,3.77,8.14,4.38,12.59l4.35,1.92a16.51,16.51,0,0,0,23-12.86L204.42,78a.2.2,0,0,0,0-.07A5.91,5.91,0,0,0,199.38,71.3Z"/><path class="cls-28" d="M255.91,211.93h0a18.2,18.2,0,0,1,18.2,18.2v36.4a0,0,0,0,1,0,0h-36.4a0,0,0,0,1,0,0v-36.4A18.2,18.2,0,0,1,255.91,211.93Z"/><path class="cls-18" d="M274.12,255.09a8.55,8.55,0,0,0-9.62.39,9.79,9.79,0,0,0-2.94,3.8,4.48,4.48,0,0,0-.57,3.06c.14.61.45,1.18.6,1.79s.09,1.33.2,2"/><path class="cls-18" d="M256,266.44a4.41,4.41,0,0,0,0-1.66,16.22,16.22,0,0,1-.18-2.09,15.37,15.37,0,0,1,.42-4c.62-2.52,1.86-3,3.79-4.56,2.33-1.93,2.81-5.43,5-7.48a9.22,9.22,0,0,1,4.07-1.82c1.43-.32,3.64-.29,4.72.88"/><path class="cls-18" d="M273.76,239.71a16.43,16.43,0,0,0-17.68,7.13c-1.25,2-2.07,4.39-3.8,6-.89.84-2,1.45-2.92,2.26-3,2.59-3.91,6.8-4.25,10.74"/><path class="cls-18" d="M260.09,212.17a15.24,15.24,0,0,0-2.88,5.93,10.06,10.06,0,0,0-.11,4.66,6,6,0,0,0,2.62,3.76c2.07,1.22,4.79.75,6.81-.55a18.69,18.69,0,0,0,4.84-5.25"/><path class="cls-18" d="M252.65,213.25c-2.6,5.54-3.34,12.17-1,17.81a7,7,0,0,0,8.49,4.91,18.45,18.45,0,0,0,6.65-2.43c1-.64,2.05-1.34,3.13-1.9a5.17,5.17,0,0,1,3.93-.55"/><path class="cls-18" d="M242.37,219c2.92,1.47,3.47,4.47,3.55,7.48.05,2.19,0,4.63,1,6.67s2.71,2.61,3.9,4.34c5.93,8.57-5.54,11.65-7.62,18.75-.9,3.06-2,4.44-5.31,5.66"/><path class="cls-18" d="M237.71,233.77c1.59,4.18,9.32,5.62,7.27,10.92-1.33,3.43-5.3,5.1-6.93,8.56"/><circle class="cls-9" cx="161.71" cy="71.33" r="10.87"/><path class="cls-29" d="M163.89,67.68a4.23,4.23,0,0,0,1.1.09,13.68,13.68,0,0,0,3.76-.72c2.32-.81,4.58-2.48,4.68-5.14,0-.57-.14-1.27-.68-1.43a1.26,1.26,0,0,0-.61,0c-1.86.38-2.25,1.75-4.37.67-8.2-4.16-18.19,1-16.88,10.77a4.93,4.93,0,0,1,.8-2.22,7.94,7.94,0,0,1,1.54-2A6.24,6.24,0,0,1,158,66a14,14,0,0,1,3.19.7C162.25,67,163,67.48,163.89,67.68Z"/><path class="cls-8" d="M172.07,74.42a15.53,15.53,0,0,0-.75-4.2,8.47,8.47,0,0,0-2-3.25,1.93,1.93,0,1,1,2.72-2.75,1.86,1.86,0,0,1,.45.71l.06.17a11.19,11.19,0,0,1,.59,4.93A16.07,16.07,0,0,1,172.07,74.42Z"/><line class="cls-30" x1="291.38" y1="267" x2="118.71" y2="267"/></g></g></svg>