<svg width="66" height="137" viewBox="0 0 66 137" fill="none" xmlns="http://www.w3.org/2000/svg">
<path d="M33.7749 92H24.2286C19.4693 91.9866 14.8249 90.5121 10.9039 87.7697C6.98285 85.0273 3.96808 81.1449 2.25448 76.631C0.774731 72.6382 0.599189 68.2671 1.75387 64.165L16.7022 9.4773C20.1585 -3.15689 37.7797 -3.16131 41.2403 9.4773C47.2519 31.4223 53.7292 55.0268 56.2409 64.1605C57.4015 68.2691 57.2275 72.6487 55.7447 76.6487C54.0286 81.1585 51.0133 85.0367 47.0934 87.7758C43.1734 90.5148 38.5314 91.9871 33.7749 92Z" fill="#006D69"/>
<path fill-rule="evenodd" clip-rule="evenodd" d="M16.7116 9.81207C16.7116 9.81209 16.7116 9.81205 16.7116 9.81207L1.40017 64.1249L1.3995 64.1272C0.235789 68.1357 0.412582 72.4071 1.90367 76.3088C3.63579 80.732 6.68277 84.5364 10.6456 87.2237C14.6087 89.9113 19.3031 91.3564 24.1136 91.3695H33.89C38.6977 91.3568 43.3896 89.914 47.3517 87.2297C51.3134 84.5456 54.3609 80.7454 56.0955 76.3262C57.5896 72.4174 57.7649 68.1379 56.5953 64.1231L56.5946 64.1209C54.0219 55.0496 47.3872 31.6068 41.2296 9.81218C37.7717 -2.43216 20.1651 -2.42776 16.7116 9.81207ZM16.0953 9.64313C19.7224 -3.21216 38.2142 -3.21657 41.8458 9.64306C48.0032 31.4368 54.6375 54.8785 57.2104 63.9503C58.4178 68.0955 58.2366 72.5141 56.6936 76.5498L56.6926 76.5524C54.9116 81.0905 51.7823 84.993 47.714 87.7493C43.6458 90.5055 38.8282 91.987 33.8917 92H24.1119C19.1724 91.9865 14.3524 90.5028 10.283 87.7432C6.21365 84.9835 3.08483 81.0767 1.3064 76.5346L1.30549 76.5322C-0.234293 72.5037 -0.417077 68.0937 0.7842 63.9548C0.784307 63.9545 0.784414 63.9541 0.78452 63.9537L16.0953 9.64313Z" fill="#006D69"/>
<path fill-rule="evenodd" clip-rule="evenodd" d="M17.0625 35.0173C17.7524 34.9007 18.4028 35.3866 18.5152 36.1025C18.9207 38.6869 20.1978 41.0377 22.1186 42.7357C24.0389 44.4332 26.4775 45.3678 29 45.3731C31.5225 45.3678 33.9612 44.4332 35.8814 42.7357C37.8022 41.0377 39.0793 38.6869 39.4848 36.1025C39.5972 35.3866 40.2476 34.9007 40.9375 35.0173C41.6275 35.1339 42.0957 35.8088 41.9834 36.5248C41.4813 39.7237 39.9005 42.6336 37.523 44.7354C35.1454 46.8371 32.1256 47.9941 29.0023 48H28.9977C25.8744 47.9941 22.8546 46.8371 20.4771 44.7354C18.0995 42.6336 16.5187 39.7237 16.0166 36.5248C15.9043 35.8088 16.3725 35.1339 17.0625 35.0173Z" fill="#AECC53"/>
<path d="M39.0086 36.8187C39.0445 36.4247 39.1964 36.0502 39.4451 35.7426C39.6938 35.4349 40.0281 35.208 40.4058 35.0904C40.7835 34.9728 41.1876 34.9699 41.5669 35.082C41.9463 35.1941 42.2839 35.4162 42.537 35.7202C42.7901 36.0243 42.9474 36.3965 42.9889 36.79C43.0305 37.1834 42.9544 37.5803 42.7704 37.9305C42.5863 38.2807 42.3026 38.5684 41.955 38.7573C41.6075 38.9462 41.2117 39.0277 40.8178 38.9917C40.5561 38.9683 40.3017 38.8935 40.069 38.7715C39.8364 38.6495 39.6301 38.4828 39.462 38.2809C39.2939 38.079 39.1673 37.8459 39.0895 37.595C39.0117 37.3441 38.9842 37.0803 39.0086 36.8187V36.8187Z" fill="#AECC53"/>
<path d="M18.9914 36.8187C18.9555 36.4247 18.8036 36.0502 18.5549 35.7426C18.3062 35.4349 17.9719 35.208 17.5942 35.0904C17.2165 34.9728 16.8124 34.9699 16.4331 35.082C16.0537 35.1941 15.7161 35.4162 15.463 35.7202C15.2099 36.0243 15.0526 36.3965 15.0111 36.79C14.9695 37.1834 15.0456 37.5803 15.2296 37.9305C15.4137 38.2807 15.6974 38.5684 16.045 38.7573C16.3925 38.9462 16.7883 39.0277 17.1822 38.9917C17.4439 38.9683 17.6983 38.8935 17.931 38.7715C18.1636 38.6495 18.3699 38.4828 18.538 38.2809C18.7061 38.079 18.8327 37.8459 18.9105 37.595C18.9883 37.3441 19.0158 37.0803 18.9914 36.8187V36.8187Z" fill="#AECC53"/>
<path fill-rule="evenodd" clip-rule="evenodd" d="M11.1364 52.0081C11.8374 51.9282 12.4686 52.4479 12.5464 53.169C12.996 57.3399 14.922 61.1948 17.9572 63.9988C20.9915 66.8019 24.9221 68.3587 29.0003 68.3727C33.0785 68.3595 37.0094 66.8031 40.0438 63.9999C43.0791 61.1959 45.0048 57.3405 45.4536 53.1693C45.5312 52.4482 46.1623 51.9283 46.8633 52.0081C47.5643 52.0879 48.0697 52.7372 47.9921 53.4583C47.4744 58.2711 45.2525 62.7194 41.7503 65.9547C38.2481 69.1901 33.7108 70.986 29.0037 71L29 69.6863L28.996 71C24.2893 70.9849 19.7526 69.1886 16.2507 65.9536C12.7488 62.7185 10.5267 58.2709 10.0079 53.4586C9.93016 52.7375 10.4354 52.0881 11.1364 52.0081Z" fill="#AECC53"/>
<path d="M45.0035 53.8769C45.0279 53.4824 45.1685 53.1039 45.4078 52.7893C45.6471 52.4747 45.9742 52.238 46.3479 52.1092C46.7216 51.9804 47.1251 51.9652 47.5075 52.0655C47.8898 52.1658 48.2339 52.3771 48.4962 52.6728C48.7585 52.9685 48.9273 53.3353 48.9813 53.7269C49.0352 54.1184 48.972 54.5172 48.7995 54.8728C48.627 55.2284 48.353 55.525 48.012 55.725C47.6711 55.925 47.2785 56.0195 46.8839 55.9966C46.3535 55.9647 45.8575 55.7234 45.5049 55.3259C45.1524 54.9285 44.972 54.4073 45.0035 53.8769V53.8769Z" fill="#AECC53"/>
<path d="M13.9964 53.8766C13.9721 53.4819 13.8312 53.1034 13.5917 52.7887C13.3522 52.474 13.0248 52.2374 12.6508 52.1088C12.2769 51.9801 11.8732 51.9652 11.4908 52.0659C11.1083 52.1667 10.7644 52.3784 10.5023 52.6746C10.2402 52.9707 10.0718 53.3379 10.0184 53.7297C9.9649 54.1215 10.0288 54.5203 10.202 54.8758C10.3752 55.2313 10.6499 55.5275 10.9913 55.727C11.3328 55.9264 11.7257 56.0202 12.1205 55.9964C12.6501 55.9633 13.145 55.7215 13.4966 55.3242C13.8483 54.9268 14.028 54.4063 13.9964 53.8766V53.8766Z" fill="#AECC53"/>
<path fill-rule="evenodd" clip-rule="evenodd" d="M29 20C29.5523 20 30 20.5617 30 21.2545V135.745C30 136.438 29.5523 137 29 137C28.4477 137 28 136.438 28 135.745V21.2545C28 20.5617 28.4477 20 29 20Z" fill="#AECC53"/>
<path d="M29 23C30.1046 23 31 22.1046 31 21C31 19.8954 30.1046 19 29 19C27.8954 19 27 19.8954 27 21C27 22.1046 27.8954 23 29 23Z" fill="#AECC53"/>
<g style="mix-blend-mode:multiply">
<path d="M55.5025 106.773C54.9721 106.773 54.4635 106.561 54.0885 106.183C53.7135 105.806 53.5028 105.294 53.5028 104.76C53.5028 104.226 53.7135 103.714 54.0885 103.337C54.4635 102.959 54.9721 102.747 55.5025 102.747H65.7441C65.913 101.806 65.9987 100.852 66 99.896C65.9839 99.0492 65.8807 98.2064 65.692 97.381H55.5025C54.9877 97.3568 54.5019 97.134 54.1461 96.7587C53.7902 96.3835 53.5916 95.8847 53.5916 95.3659C53.5916 94.8471 53.7902 94.3483 54.1461 93.973C54.5019 93.5978 54.9877 93.3749 55.5025 93.3508H64.5165C63.9222 91.6698 63.1804 89.8577 62.3476 87.9846H55.5025C54.9721 87.9846 54.4635 87.7725 54.0885 87.395C53.7135 87.0175 53.5028 86.5055 53.5028 85.9717C53.5028 85.4378 53.7135 84.9258 54.0885 84.5483C54.4635 84.1708 54.9721 83.9588 55.5025 83.9588H60.4606C59.5931 82.1467 58.6474 80.3347 57.7235 78.5881H55.5025C54.9721 78.5881 54.4635 78.3761 54.0885 77.9986C53.7135 77.6211 53.5028 77.1091 53.5028 76.5752C53.5028 76.0414 53.7135 75.5294 54.0885 75.1519C54.4635 74.7744 54.9721 74.5623 55.5025 74.5623H55.5459C52.5094 69.0825 50.0022 65 50.0022 65C50.0022 65 47.4906 69.0825 44.4585 74.5623H44.5018C45.0322 74.5623 45.5408 74.7744 45.9159 75.1519C46.2909 75.5294 46.5016 76.0414 46.5016 76.5752C46.5016 77.1091 46.2909 77.6211 45.9159 77.9986C45.5408 78.3761 45.0322 78.5881 44.5018 78.5881H42.2765C41.3526 80.3347 40.4243 82.1467 39.5437 83.9588H44.5018C45.0322 83.9588 45.5408 84.1708 45.9159 84.5483C46.2909 84.9258 46.5016 85.4378 46.5016 85.9717C46.5016 86.5055 46.2909 87.0175 45.9159 87.395C45.5408 87.7725 45.0322 87.9846 44.5018 87.9846H37.6524C36.8196 89.8534 36.0778 91.6698 35.4835 93.3508H44.5018C45.0167 93.3749 45.5024 93.5978 45.8583 93.973C46.2141 94.3483 46.4127 94.8471 46.4127 95.3659C46.4127 95.8847 46.2141 96.3835 45.8583 96.7587C45.5024 97.134 45.0167 97.3568 44.5018 97.381H34.308C34.1215 98.2067 34.0183 99.0494 34 99.896C34.0013 100.852 34.087 101.806 34.2559 102.747H44.5018C45.0322 102.747 45.5408 102.959 45.9159 103.337C46.2909 103.714 46.5016 104.226 46.5016 104.76C46.5016 105.294 46.2909 105.806 45.9159 106.183C45.5408 106.561 45.0322 106.773 44.5018 106.773H35.5312C36.8266 109.533 38.8743 111.866 41.4359 113.499C43.9976 115.133 46.9676 116 50 116C53.0324 116 56.0024 115.133 58.5641 113.499C61.1257 111.866 63.1734 109.533 64.4688 106.773H55.5025Z" fill="#AECC53"/>
</g>
<path fill-rule="evenodd" clip-rule="evenodd" d="M49.5 68C49.7761 68 50 68.2117 50 68.4729V135.527C50 135.788 49.7761 136 49.5 136C49.2239 136 49 135.788 49 135.527V68.4729C49 68.2117 49.2239 68 49.5 68Z" fill="#006D69"/>
</svg>
