<svg width="70" height="70" viewBox="0 0 63 63" fill="none" xmlns="http://www.w3.org/2000/svg">
              <path d="M63.59 32C63.59 14.5091 49.4274 0.331787 31.9545 0.331787C14.4816 0.331787 0.319 14.5091 0.319 32C0.319 49.491 14.4816 63.6683 31.9545 63.6683C33.002 63.6683 63.5062 63.5005 63.5062 63.5005C63.5062 63.5005 63.59 32.797 63.59 32Z" fill="#006D69"></path>
              <path d="M25.7531 47.6034L53.1985 39.2145V28.5186L25.7531 20.1296V47.6034Z" fill="white"></path>
              <path d="M53.1566 47.6034H47.8351V26.3794H53.1566V44.2478V47.6034Z" fill="#AECC53"></path>
              <path d="M25.7531 25.5825V42.1507L21.8563 39.5082V28.225L25.7531 25.5825Z" fill="#AECC53"></path>
              <path d="M18.4204 41.3537C14.3141 37.2431 14.3141 30.532 18.4204 26.4214" stroke="white" stroke-width="3.5222" stroke-miterlimit="10"></path>
              <path d="M15.5292 44.2478C9.7887 38.5014 9.7887 29.2316 15.5292 23.5271" stroke="white" stroke-width="3.5222" stroke-miterlimit="10"></path>
            </svg>